<?xml version="1.0" encoding="UTF-8"?><svg id="a" xmlns="http://www.w3.org/2000/svg" viewBox="0 0 736.1232 736.1232"><defs><style>.b{opacity:.5;}.c{fill:#a1393e;}</style></defs><g><path class="c" d="M410.941,373.8647c5.8678,1.2982,11.3536,4.382,17.0795,7.607,4.584,2.5811,9.3232,5.25,14.4727,7.0986,13.6963,4.918,33.5967,9.7686,33.7969,9.8164,.0452,.011,.0886,.0275,.1336,.0392l55.2629-55.2629v-25.4712c0-.1875,.0112-.3723,.0281-.5554-.2857,.0417-.5756,.0706-.8728,.0706h-98.9811l-20.9197,56.6577Z"/><polygon class="c" points="594.7308 270.221 566.2598 298.692 623.2017 298.692 594.7308 270.221"/><path class="c" d="M538.2491,310.692h-.5625c-.2875,0-.568-.0272-.8447-.0663v.5814c0,.1875-.0112,.3723-.0281,.5554,.2857-.0417,.5756-.0706,.8728-.0706h.5865c-.0123-.1569-.024-.3141-.024-.4741v-.5259Z"/><polygon class="c" points="566.2595 411.692 623.2017 411.692 594.7307 383.2209 566.2595 411.692"/><polygon class="c" points="558.7339 330.2178 588.2048 359.6889 617.6758 330.2178 558.7339 330.2178"/><polygon class="c" points="631.6866 403.1708 631.6866 346.2651 603.2337 374.7178 631.6866 403.1708"/><polygon class="c" points="465.2945 255.1812 436.8419 226.7286 436.8419 283.6339 465.2945 255.1812"/><polygon class="c" points="444.3267 217.2071 473.7977 246.678 503.2686 217.2071 444.3267 217.2071"/><path class="c" d="M311.8423,310.9571v-.5259h-.5625c-.1477,0-.2925-.0116-.4375-.0221v.548c0,.674-.1161,1.3196-.321,1.9243l22.3197,60.4491c4.4462,.6941,6.5024,4.813,8.1766,8.1891,2.0557,4.1455,4.6138,9.3047,11.0913,13.752,2.9507,2.0264,11.1328,2.373,15.7339,1.9697,.353-.0303,.7153-.0312,1.0693,.001,4.5967,.4053,12.7754,.0557,15.7266-1.9707,6.4785-4.4482,9.0371-9.6064,11.0928-13.752,1.7794-3.589,3.9894-8.0153,9.0429-8.2767l21.4794-58.1733c-.8798-1.0439-1.4119-2.3904-1.4119-3.8625v-.5259h-.5625c-.1477,0-.2925-.0116-.4375-.0221v.298c0,3.314-2.6865,6-6,6h-99.9995c-3.3135,0-6-2.686-6-6Z"/><polygon class="c" points="331.3276 216.9571 360.798 246.4277 390.2686 216.9571 331.3276 216.9571"/><polygon class="c" points="480.3235 270.2103 451.8526 298.6812 508.7945 298.6812 480.3235 270.2103"/><polygon class="c" points="579.7017 255.192 550.2491 225.7393 550.2491 284.6446 579.7017 255.192"/><polygon class="c" points="518.2794 291.1597 518.2794 232.2545 488.8267 261.7071 518.2794 291.1597"/><polygon class="c" points="594.481 609.2203 566.0098 637.6915 622.9522 637.6915 594.481 609.2203"/><polygon class="c" points="631.4366 629.171 631.4366 572.2647 602.9835 600.7178 631.4366 629.171"/><polygon class="c" points="558.4835 556.2178 587.9547 585.689 617.4258 556.2178 558.4835 556.2178"/><polygon class="c" points="549.9991 623.6446 579.4522 594.1915 549.9991 564.7383 549.9991 623.6446"/><path class="c" d="M502.5704,75.461c-1.0986-1.1855-2.5869-1.7617-4.5488-1.7617-1.9482,0-3.4023,.5674-4.4463,1.7354-.7744,.8652-1.3271,2.0317-1.6533,3.4834h12.2305c-.2627-1.4458-.792-2.604-1.582-3.457Z"/><path class="c" d="M243.5679,96.9258c3.2852,0,4.5215-1.353,5.1655-2.3706,1.1812-1.8657,1.7798-4.811,1.7798-8.7544,0-3.9087-.6011-6.814-1.7861-8.6362-1.021-1.5693-2.7344-2.3325-5.2373-2.3325-2.479,0-4.1807,.7583-5.2017,2.3179-1.1831,1.8076-1.7827,4.7178-1.7827,8.6509,0,3.915,.6099,6.8506,1.812,8.7246,.6611,1.0308,1.9233,2.4004,5.2505,2.4004Z"/><path class="c" d="M628.3907,75.461c-1.0986-1.1855-2.5869-1.7617-4.5488-1.7617-1.9482,0-3.4023,.5674-4.4463,1.7354-.7744,.8652-1.3271,2.0317-1.6533,3.4834h12.2305c-.2627-1.4458-.792-2.604-1.582-3.457Z"/><polygon class="c" points="352.2945 254.9312 323.8423 226.4791 323.8423 283.3834 352.2945 254.9312"/><polygon class="c" points="631.4366 516.171 631.4366 459.2647 602.9835 487.7178 631.4366 516.171"/><polygon class="c" points="558.7339 217.2178 588.2049 246.6888 617.6758 217.2178 558.7339 217.2178"/><polygon class="c" points="631.6866 290.1705 631.6866 233.2652 603.2339 261.7178 631.6866 290.1705"/><polygon class="c" points="594.481 496.2203 566.0098 524.6915 622.9522 524.6915 594.481 496.2203"/><path class="c" d="M538.2491,423.692h-.5625c-3.3135,0-6-2.686-6-6v-66.0444l-50.8499,50.8499c.46,1.6709,.2532,3.3153-.7702,4.7507-.3232,.7666-1.8711,4.9102-2.4795,15.3203-.9668,16.5283,2.8711,27.1787,2.9102,27.2842,.4649,1.2639,.4833,2.6425,.0791,3.9102l50.8603,50.8604v-73.9316c0-3.3135,2.6865-6,6-6h.8364c-.0123-.1567-.0239-.3137-.0239-.4736v-.5259Z"/><polygon class="c" points="549.9991 510.6446 579.4522 481.1915 549.9991 451.7383 549.9991 510.6446"/><polygon class="c" points="558.4835 443.2178 587.9547 472.689 617.4258 443.2178 558.4835 443.2178"/><polygon class="c" points="550.2491 397.6446 579.7017 368.192 550.2491 338.7393 550.2491 397.6446"/><polygon class="c" points="126.7012 368.192 97.2491 338.7398 97.2491 397.6441 126.7012 368.192"/><polygon class="c" points="141.7307 383.2214 113.2599 411.692 170.2012 411.692 141.7307 383.2214"/><polygon class="c" points="178.4366 516.1705 178.4366 459.2652 149.9839 487.7178 178.4366 516.1705"/><polygon class="c" points="164.4254 443.2178 105.4839 443.2178 134.9547 472.6885 164.4254 443.2178"/><polygon class="c" points="141.7308 270.2215 113.2603 298.692 170.2012 298.692 141.7308 270.2215"/><polygon class="c" points="178.6866 403.1703 178.6866 346.2656 150.2342 374.7178 178.6866 403.1703"/><polygon class="c" points="367.3238 269.9605 338.8534 298.4312 395.7945 298.4312 367.3238 269.9605"/><polygon class="c" points="126.7012 255.192 97.2491 225.7398 97.2491 284.6441 126.7012 255.192"/><path class="c" d="M531.4366,641.3315v-97.64c0-3.3135,2.6865-6,6-6h.5864c-.0123-.1567-.0239-.3137-.0239-.4736v-.5264h-.5625c-3.3135,0-6-2.6865-6-6v-17.584l-55.2907-55.2907-38.306,10.1345c-.8047,8.9639-2.4521,31.5039-1.2129,54.9502,1.5967,30.1875,11.2578,77.6367,11.3555,78.1123,.1876,.9164,.1513,1.8481-.0797,2.7275l83.5338,37.5902Z"/><path class="c" d="M705.9938,0H30.1294C13.4894,0,0,13.4894,0,30.1294V705.9938c0,16.64,13.4894,30.1294,30.1294,30.1294H705.9938c16.64,0,30.1294-13.4894,30.1294-30.1294V30.1294c0-16.64-13.4894-30.1294-30.1294-30.1294Zm-98.8814,67.8687c4.0361-4.4102,9.6387-6.646,16.6514-6.646,6.7012,0,12.0322,1.9766,15.8438,5.875,3.7998,3.8862,5.7266,9.2588,5.7266,15.9688v7.7812h-27.9453c.3447,1.8818,1.0762,3.3735,2.2129,4.5249,1.4971,1.5186,3.6123,2.2563,6.4668,2.2563,2.4648,0,4.8223-.2583,7.0068-.7681,2.1963-.5127,4.5342-1.3472,6.9482-2.48l2.8496-1.3374v13.6025l-1.1055,.5532c-2.2236,1.1118-4.6309,1.9497-7.1553,2.4907-2.4961,.5352-5.5547,.8062-9.0908,.8062-7.541,0-13.5586-2.1509-17.8848-6.3921-4.3379-4.251-6.5371-10.2778-6.5371-17.9126,0-7.7988,2.0234-13.9634,6.0127-18.3228Zm-81.9111-5.8257h12.6084l1.1084,3.8652c1.0801-1.0933,2.3555-2.0186,3.8174-2.7666,2.4873-1.2734,5.3564-1.9189,8.5283-1.9189,6.3262,0,10.9717,1.8857,13.8447,5.6118,1.2568-1.5317,2.8594-2.7808,4.7852-3.7271,2.5459-1.2505,5.4385-1.8848,8.5967-1.8848,5.4746,0,9.7285,1.4785,12.6445,4.3945,2.916,2.9155,4.3945,7.4985,4.3945,13.6211v30.4766h-15.9531v-27.5078c0-2.7324-.4189-4.7437-1.2441-5.9775-.4238-.6333-1.2295-1.4756-3.3184-1.4756-2.2705,0-3.8272,.7197-4.8994,2.2651-1.2021,1.7329-1.8115,4.6875-1.8115,8.7817v23.9141h-15.9141v-27.5078c0-2.7324-.4189-4.7437-1.2441-5.9775-.4238-.6333-1.2295-1.4756-3.3184-1.4756-2.3564,0-3.9258,.7651-4.9375,2.4087-.8096,1.312-1.7734,4.1133-1.7734,10.0054v22.5469h-15.9141V62.043Zm-28.4414-1.165c-1.6738-1.168-4.1426-3.0693-7.3389-5.6499-3.2031-2.5854-5.7471-4.7886-7.5586-6.5469l-.6064-.5894v-3.666h16.4688l.5879,.9419c1.5791,2.5322,4.6064,6.4058,8.999,11.5117l.4834,.5625v3.7964h-8.8301c6.2236,.1924,11.2061,2.1611,14.8223,5.8594,3.7998,3.8862,5.7266,9.2588,5.7266,15.9688v7.7812h-27.9453c.3447,1.8818,1.0762,3.3735,2.2129,4.5249,1.4971,1.5186,3.6123,2.2563,6.4668,2.2563,2.4648,0,4.8223-.2583,7.0068-.7681,2.1963-.5127,4.5342-1.3472,6.9482-2.48l2.8496-1.3374v13.6025l-1.1055,.5532c-2.2236,1.1118-4.6309,1.9497-7.1553,2.4907-2.4961,.5352-5.5547,.8062-9.0908,.8062-7.541,0-13.5586-2.1509-17.8848-6.3921-4.3379-4.251-6.5371-10.2778-6.5371-17.9126,0-7.7988,2.0234-13.9634,6.0127-18.3228,3.9053-4.2666,9.2754-6.498,15.9707-6.6387l-.5029-.3521Zm-71.4023-15.9443h15.9141v14.3828c0,.8447-.0654,2.6001-.1982,5.3457,2.8398-2.2856,6.499-3.4395,10.9326-3.4395,5.6699,0,10.085,1.5996,13.1211,4.7539,3.0146,3.1333,4.543,7.5952,4.543,13.2617v30.4766h-15.9141v-27.5078c0-7.4531-3.5254-7.4531-5.0312-7.4531-2.6377,0-4.4541,.8159-5.5537,2.4946-1.2607,1.9238-1.8994,5.2612-1.8994,9.9194v22.5469h-15.9141V44.9337Zm-39.1406,21.8901l6.9307-4.208,3.6807-9.8696h11.0059v9.2969h12.2266v12.9453h-12.2266v19.0547c0,1.6147,.541,2.0737,.7197,2.2246,.583,.4961,1.3926,.7363,2.4756,.7363,1.873,0,4.1953-.4292,6.9033-1.2759l2.5967-.812v12.8843l-1.1836,.5293c-3.2129,1.4375-7.168,2.1665-11.7539,2.1665-5.334,0-9.3359-1.438-11.8955-4.2734-2.5059-2.7749-3.7764-6.873-3.7764-12.1797v-19.0547h-5.7031v-8.1646Zm-25.1958,12.563h24.9771v13.7656h-24.9771v-13.7656Zm-33.1963-14.6143c3.3384-2.3555,8.0308-3.5498,13.9463-3.5498,5.5249,0,10.9712,1.2183,16.188,3.6211l1.7534,.8071-5.1167,12.2363-1.8545-.7949c-2.1094-.9038-4.1104-1.6562-5.9468-2.2358-1.6982-.5347-3.4541-.8057-5.2188-.8057-1.5767,0-3.2734,.2666-3.2734,.8516,0,.1509,0,.5513,.8345,1.127,.6924,.4775,2.4775,1.4316,7.0508,3.2671,3.6128,1.4624,6.2144,2.811,7.959,4.126,1.8374,1.3867,3.2207,3.0239,4.1123,4.8667,.8843,1.8306,1.3325,4.0024,1.3325,6.457,0,5.1196-1.8384,9.1006-5.4648,11.832-3.4521,2.5996-8.5557,3.918-15.168,3.918-3.2886,0-6.1494-.229-8.502-.6802-2.3711-.4551-4.6245-1.1343-6.6973-2.0195l-1.2148-.5186v-14.3169l2.8521,1.3428c2.085,.9819,4.4805,1.8188,7.1201,2.4883,2.5996,.6592,4.8984,.9932,6.8325,.9932,2.9756,0,4.4844-.5889,4.4844-1.75,0-.5234-.1553-.7495-.29-.8877-.2383-.2437-.8784-.7798-2.4717-1.6211-1.3433-.7085-3.1831-1.5581-5.4697-2.5239-3.5449-1.4839-6.1099-2.8442-7.835-4.1567-1.8301-1.3901-3.1909-3.0308-4.0425-4.874-.8345-1.8042-1.2583-4.0122-1.2583-6.5615,0-4.5493,1.8027-8.1284,5.3584-10.6377Zm-55.5146-2.7295h15.9141v27.5078c0,2.7134,.4404,4.709,1.3096,5.9307,.4644,.6543,1.3545,1.5225,3.7217,1.5225,2.644,0,4.4639-.8013,5.5625-2.4492,.8623-1.2939,1.8906-4.0728,1.8906-9.9648v-22.5469h15.9141v47.6719h-12.6479l-1.1255-3.9258c-1.1782,1.146-2.5723,2.1016-4.1694,2.8555-2.6025,1.2285-5.584,1.8516-8.8618,1.8516-5.6782,0-10.0703-1.5967-13.0532-4.7456-2.9556-3.1172-4.4546-7.5688-4.4546-13.231v-30.4766Zm-45.8237,5.7466c4.0996-4.3574,9.8726-6.5669,17.1597-6.5669,4.5229,0,8.5884,1.0078,12.0825,2.9961,3.5371,2.0132,6.2891,4.937,8.1802,8.6899,1.8525,3.6782,2.792,8.0156,2.792,12.8921,0,7.6006-2.0737,13.6724-6.1641,18.0459-4.1255,4.4121-9.8872,6.6494-17.125,6.6494-4.5264,0-8.5938-1.0156-12.0884-3.0186-3.5356-2.0269-6.2871-4.9712-8.1772-8.751-1.8506-3.7017-2.7891-8.0508-2.7891-12.9258,0-7.6284,2.062-13.688,6.1294-18.0112Zm-50.1138,22.937l2.8145,1.2554c3.7373,1.667,6.9268,2.853,9.48,3.5254,2.4907,.6562,4.7832,.9888,6.8149,.9888,2.2173,0,3.8828-.3872,4.9497-1.1499,.5547-.397,1.2925-1.1304,1.2925-2.9048,0-.6978-.1846-1.2944-.564-1.8242-.4805-.6704-1.2334-1.3501-2.2373-2.0195-1.124-.749-3.5303-2.0024-7.1519-3.7251-3.6831-1.7314-6.4014-3.375-8.3018-5.021-1.9287-1.6689-3.4922-3.6421-4.6455-5.8638-1.1855-2.2817-1.7871-4.9575-1.7871-7.9526,0-5.645,1.9673-10.168,5.8467-13.4424,3.7783-3.1899,8.9897-4.8076,15.4893-4.8076,3.125,0,6.1533,.3765,9.001,1.1196,2.7764,.7241,5.7192,1.7563,8.7476,3.0688l1.8066,.7827-5.4243,13.0728-1.8433-.7563c-2.9409-1.2065-5.3906-2.0562-7.2817-2.5264-1.8271-.4531-3.6431-.6831-5.3965-.6831-1.7832,0-3.1152,.373-3.9585,1.1089-.7852,.6846-1.1509,1.5337-1.1509,2.6724,0,.6934,.1436,1.2607,.4395,1.7349,.3452,.5557,.9497,1.1318,1.7979,1.7139,.6821,.4688,2.5195,1.5161,7.4053,3.8477,5.6787,2.7158,9.5049,5.417,11.6982,8.2588,2.2471,2.9131,3.3857,6.498,3.3857,10.6558,0,5.77-2.1255,10.396-6.3169,13.749-4.0571,3.2461-9.6885,4.8916-16.7378,4.8916-6.373,0-12.1094-1.2251-17.0503-3.6406l-1.1216-.5483v-15.5806ZM99.1072,49.0466h17.1291l23.4408,40.4218c-.2623-5.4611-.3952-9.4998-.3952-12.0348v-28.387h13.1658v59.8522h-17.2501l-23.5129-40.8887c.3384,5.7076,.5093,9.9563,.5093,12.6596v28.2291h-13.0869V49.0466Zm-47.4633,57.0591l-.6043-.2955v-13.6991l1.5165,.6764c3.822,1.7046,7.0928,2.9199,9.7217,3.6123,2.5941,.6835,4.9911,1.03,7.1249,1.03,2.4413,0,4.3085-.4501,5.5495-1.3378,1.1437-.8188,1.6998-2.0298,1.6998-3.7015,0-.9088-.2439-1.6909-.7456-2.3913-.5522-.7709-1.3947-1.537-2.5039-2.2766-1.1755-.783-3.6465-2.0719-7.3435-3.8304-3.5944-1.6896-6.3464-3.3502-8.1749-4.9338-1.8588-1.6085-3.3642-3.5081-4.4736-5.6458-1.1279-2.1711-1.6999-4.7281-1.6999-7.6,0-5.4127,1.8748-9.7396,5.5724-12.8601,3.6428-3.0754,8.7029-4.6347,15.0401-4.6347,3.0775,0,6.0568,.3702,8.8553,1.1005,2.7589,.7195,5.6863,1.7467,8.7009,3.0532l.9734,.4218-4.7644,11.4823-.9932-.4076c-3.0148-1.2368-5.5339-2.11-7.4869-2.5952-1.9206-.4764-3.8317-.718-5.6797-.718-2.0363,0-3.5905,.4551-4.6191,1.3525-.9998,.8719-1.4857,1.9877-1.4857,3.4105,0,.8817,.1921,1.6183,.587,2.2521,.418,.672,1.1187,1.3478,2.0824,2.0093,1.04,.7148,3.6002,2.0474,7.6095,3.9614,5.6011,2.6783,9.3555,5.3177,11.4784,8.0692,2.1392,2.773,3.2237,6.2012,3.2237,10.1887,0,5.5284-2.028,9.954-6.0278,13.1542-3.928,3.1422-9.4194,4.7352-16.3212,4.7352-6.293,0-11.9493-1.2053-16.8116-3.5823Zm598.6052,205.1121c0,3.314-2.6865,6-6,6h-.5865c.0123,.1569,.024,.3141,.024,.4741v.5259h.5625c3.3135,0,6,2.686,6,6v100c0,3.3135-2.6865,6-6,6h-.8364c.0123,.1567,.0239,.3137,.0239,.4736v.5264h.5625c3.3135,0,6,2.6865,6,6v100c0,3.3135-2.6865,6-6,6h-.5864c.0123,.1567,.0239,.3137,.0239,.4736v.5264h.5625c3.3135,0,6,2.6865,6,6v100c0,3.3135-2.6865,6-6,6h-100c-3.0891,0-5.631-2.3357-5.9614-5.3369l-94.9903-42.7457c-.3107,.0496-.6249,.0825-.9428,.0825-.2539,0-.5088-.0156-.7646-.0488-.1553-.0195-15.7207-2.0137-35.0693-3.9824-18.9824-1.9297-37.3936-.9873-37.5786-.9775-.2109,.0117-.4238,.0117-.6348,0-.1836-.0068-18.6396-.9482-37.5796,.9775-19.3486,1.9688-34.915,3.9629-35.0698,3.9824-.3428,.0446-.6841,.0485-1.0232,.0341l-97.7192,43.9736c-.8127,2.3503-3.0394,4.0411-5.6663,4.0411H90.9991c-3.314,0-6-2.6865-6-6v-.5264h-.5625c-3.314,0-6-2.6865-6-6v-100c0-3.3135,2.686-6,6-6h.5864c-.0123-.1567-.0239-.3137-.0239-.4736v-.5264h-.5625c-3.314,0-6-2.6865-6-6v-100c0-3.3135,2.686-6,6-6h.8364c-.0123-.1567-.0239-.3137-.0239-.4736v-.5259h-.5625c-3.314,0-6-2.686-6-6v-100c0-3.314,2.686-6,6-6h.5864c-.0123-.1569-.0239-.3141-.0239-.4741v-.5259h-.5625c-3.314,0-6-2.686-6-6v-100c0-3.314,2.686-6,6-6h100c3.314,0,6,2.686,6,6v.5259h.5625c.3522,0,.6953,.0364,1.0308,.0947v-.8813c0-3.314,2.686-6,6-6h100c3.314,0,6,2.686,6,6v.5259h.5625c.1477,0,.2925,.0116,.4375,.0221v-.548c0-3.314,2.6865-6,6-6h99.9995c3.3135,0,6,2.686,6,6v.5259h.5625c.1477,0,.2925,.0116,.4375,.0221v-.298c0-3.314,2.6865-6,6-6h100c3.3135,0,6,2.686,6,6v.5259h.5625c.2875,0,.568,.0272,.8447,.0663v-.5814c0-3.314,2.6865-6,6-6h100c3.3135,0,6,2.686,6,6v.5259h.5625c3.3135,0,6,2.686,6,6v100Z"/><polygon class="c" points="126.4517 481.1915 96.9991 451.7388 96.9991 510.6441 126.4517 481.1915"/><polygon class="c" points="141.481 496.2208 113.0103 524.6915 169.9517 524.6915 141.481 496.2208"/><path class="c" d="M261.2626,457.9914l-64.2635,64.2635v14.9629c0,3.3135-2.686,6-6,6h-.5864c.0123,.1567,.0239,.3137,.0239,.4736v.5264h.5625c3.314,0,6,2.6865,6,6v95.2302l91.9476-41.3765c-.3171-.9745-.3929-2.0251-.1815-3.0579,.0972-.4756,9.7603-47.9248,11.3555-78.1123,1.2393-23.4463-.4072-45.9863-1.2119-54.9492l-37.6461-9.9608Z"/><polygon class="c" points="164.6754 330.2178 105.7344 330.2178 135.2048 359.6884 164.6754 330.2178"/><polygon class="c" points="405.2794 290.9096 405.2794 232.0046 375.8271 261.4571 405.2794 290.9096"/><polygon class="c" points="292.2798 290.9092 292.2798 232.0049 262.8277 261.4571 292.2798 290.9092"/><polygon class="c" points="254.324 269.9608 225.8536 298.4312 282.7945 298.4312 254.324 269.9608"/><path class="c" d="M190.6866,317.692v.5259h.5625c3.314,0,6,2.686,6,6v10.2979l63.7406,63.7406c3.2534-.8044,20.8184-5.2169,33.2648-9.6859,5.1494-1.8486,9.8892-4.5176,14.4727-7.0986,5.978-3.3668,11.6949-6.5768,17.8569-7.7644l-20.9741-56.8047c-.2519,.0322-.5069,.0544-.7676,.0544h-100c-3.314,0-6-2.686-6-6v-.5259h-.5625c-.3522,0-.6953-.0364-1.0308-.0947v.8813c0,3.314-2.686,6-6,6h-.5864c.0123,.1569,.0239,.3141,.0239,.4741Z"/><polygon class="c" points="105.7344 217.2178 135.2049 246.6883 164.6754 217.2178 105.7344 217.2178"/><polygon class="c" points="218.3277 216.9571 247.7982 246.4276 277.2686 216.9571 218.3277 216.9571"/><polygon class="c" points="239.2945 254.9312 210.8423 226.4791 210.8423 283.3834 239.2945 254.9312"/><polygon class="c" points="141.481 609.2208 113.0103 637.6915 169.9517 637.6915 141.481 609.2208"/><polygon class="c" points="126.4517 594.1915 96.9991 564.7388 96.9991 623.6441 126.4517 594.1915"/><polygon class="c" points="178.6866 290.17 178.6866 233.2657 150.2344 261.7178 178.6866 290.17"/><path class="c" d="M259.1612,422.5684c-.6094-10.4111-2.1562-14.5537-2.48-15.3203-1.1328-1.5898-1.2725-3.4336-.606-5.2871,.0117-.0325,.0294-.061,.0417-.0931l-58.8679-58.8679v81.2178c0,3.3135-2.686,6-6,6h-.8364c.0123,.1567,.0239,.3137,.0239,.4736v.5264h.5625c3.314,0,6,2.6865,6,6v76.5527l59.397-59.397c-.6359-1.4351-.6932-3.0643-.1368-4.5424,.0308-.084,3.8687-10.7344,2.9019-27.2627Z"/><polygon class="c" points="105.4839 556.2178 134.9547 585.6885 164.4254 556.2178 105.4839 556.2178"/><polygon class="c" points="178.4366 629.1705 178.4366 572.2652 149.9839 600.7178 178.4366 629.1705"/></g><g class="b"><path class="c" d="M191.2491,656.4677H91.2491c-3.314,0-6-2.6865-6-6v-100c0-3.3135,2.686-6,6-6h100c3.314,0,6,2.6865,6,6v100c0,3.3135-2.686,6-6,6Zm-94-12h88v-88H97.2491v88Z"/><rect class="c" x="135.7494" y="530.257" width="11.9994" height="141.4214" transform="translate(-383.431 276.2511) rotate(-45)"/><rect class="c" x="71.6597" y="596.468" width="137.1787" height="11.9994" transform="translate(-384.9498 275.66) rotate(-45.0033)"/><path class="c" d="M191.2491,543.4677H91.2491c-3.314,0-6-2.6865-6-6v-100c0-3.3135,2.686-6,6-6h100c3.314,0,6,2.6865,6,6v100c0,3.3135-2.686,6-6,6Zm-94-12h88v-88H97.2491v88Z"/><rect class="c" x="135.7494" y="417.257" width="11.9994" height="141.4214" transform="translate(-303.5279 243.1542) rotate(-45)"/><rect class="c" x="71.6597" y="483.468" width="137.1787" height="11.9994" transform="translate(-305.0421 242.5585) rotate(-45.0033)"/><path class="c" d="M191.4991,430.4681H91.4991c-3.314,0-6-2.686-6-6v-100c0-3.314,2.686-6,6-6h100c3.314,0,6,2.686,6,6v100c0,3.314-2.686,6-6,6Zm-94-12h88v-88H97.4991v88Z"/><rect class="c" x="135.999" y="304.2575" width="12.0001" height="141.4214" transform="translate(-223.552 210.2341) rotate(-45)"/><rect class="c" x="71.9097" y="370.4681" width="137.1787" height="12.0001" transform="translate(-225.052 209.6128) rotate(-45)"/><path class="c" d="M191.4991,317.4681H91.4991c-3.314,0-6-2.686-6-6v-100c0-3.314,2.686-6,6-6h100c3.314,0,6,2.686,6,6v100c0,3.314-2.686,6-6,6Zm-94-12h88v-88H97.4991v88Z"/><rect class="c" x="135.999" y="191.2575" width="12.0001" height="141.4214" transform="translate(-143.6489 177.1372) rotate(-45)"/><rect class="c" x="71.9097" y="257.4681" width="137.1787" height="12.0001" transform="translate(-145.1489 176.5159) rotate(-45)"/><path class="c" d="M644.2491,656.4677h-100c-3.3135,0-6-2.6865-6-6v-100c0-3.3135,2.6865-6,6-6h100c3.3135,0,6,2.6865,6,6v100c0,3.3135-2.6865,6-6,6Zm-94-12h88v-88h-88v88Z"/><rect class="c" x="588.7497" y="530.257" width="11.9987" height="141.4214" transform="translate(-250.7503 596.5705) rotate(-45)"/><rect class="c" x="524.6597" y="596.4683" width="137.1787" height="11.9987" transform="translate(-252.2503 595.9491) rotate(-45)"/><path class="c" d="M644.2491,543.4677h-100c-3.3135,0-6-2.6865-6-6v-100c0-3.3135,2.6865-6,6-6h100c3.3135,0,6,2.6865,6,6v100c0,3.3135-2.6865,6-6,6Zm-94-12h88v-88h-88v88Z"/><rect class="c" x="588.7497" y="417.257" width="11.9987" height="141.4214" transform="translate(-170.8473 563.4735) rotate(-45)"/><rect class="c" x="524.6597" y="483.4683" width="137.1787" height="11.9987" transform="translate(-172.3473 562.8522) rotate(-45)"/><path class="c" d="M644.4991,430.4681h-100c-3.3135,0-6-2.686-6-6v-100c0-3.314,2.6865-6,6-6h100c3.3135,0,6,2.686,6,6v100c0,3.314-2.6865,6-6,6Zm-94-12h88v-88h-88v88Z"/><rect class="c" x="588.9994" y="304.2575" width="11.9994" height="141.4214" transform="translate(-90.8713 530.5535) rotate(-45)"/><rect class="c" x="524.9097" y="370.4684" width="137.1787" height="11.9994" transform="translate(-92.3802 529.8927) rotate(-44.9967)"/><path class="c" d="M644.4991,317.4681h-100c-3.3135,0-6-2.686-6-6v-100c0-3.314,2.6865-6,6-6h100c3.3135,0,6,2.686,6,6v100c0,3.314-2.6865,6-6,6Zm-94-12h88v-88h-88v88Z"/><rect class="c" x="588.9994" y="191.2575" width="11.9994" height="141.4214" transform="translate(-10.9683 497.4566) rotate(-45)"/><rect class="c" x="524.9097" y="257.4684" width="137.1787" height="11.9994" transform="translate(-12.4817 496.8004) rotate(-44.9967)"/><path class="c" d="M305.0923,317.2074h-100c-3.314,0-6-2.686-6-6v-100c0-3.314,2.686-6,6-6h100c3.314,0,6,2.686,6,6v100c0,3.314-2.686,6-6,6Zm-94-12h88v-88h-88v88Z"/><rect class="c" x="183.8817" y="255.7074" width="141.4214" height="12.0001" transform="translate(-110.4867 256.6763) rotate(-45)"/><rect class="c" x="247.0923" y="191.618" width="12.0001" height="137.1787" transform="translate(-109.8654 255.1763) rotate(-45)"/><path class="c" d="M418.0919,317.2074h-99.9995c-3.3135,0-6-2.686-6-6v-100c0-3.314,2.6865-6,6-6h99.9995c3.3135,0,6,2.686,6,6v100c0,3.314-2.6865,6-6,6Zm-93.9995-12h87.9995v-88h-87.9995v88Z"/><rect class="c" x="296.8816" y="255.7075" width="141.421" height="11.9998" transform="translate(-77.3898 336.5792) rotate(-45)"/><rect class="c" x="360.0922" y="191.6182" width="11.9998" height="137.1784" transform="translate(-76.7685 335.0792) rotate(-45)"/><path class="c" d="M531.0919,317.4574h-100c-3.3135,0-6-2.686-6-6v-100c0-3.314,2.6865-6,6-6h100c3.3135,0,6,2.686,6,6v100c0,3.314-2.6865,6-6,6Zm-94-12h88v-88h-88v88Z"/><rect class="c" x="409.8812" y="255.9577" width="141.4214" height="11.9994" transform="translate(-44.4787 416.5251) rotate(-44.9967)"/><rect class="c" x="473.0922" y="191.868" width="11.9994" height="137.1787" transform="translate(-43.8484 415.0553) rotate(-45)"/></g></svg>